<svg width="178" height="189" viewBox="0 0 178 189" fill="none" xmlns="http://www.w3.org/2000/svg">
<circle cx="83.5" cy="94.5" r="94.5" fill="#F6F6F6"/>
<circle cx="83" cy="95" r="87" fill="url(#paint0_linear_44_919)"/>
<path d="M37.9219 91V88.6953H33.2344V86.7734L38.2031 79.5H40.0469V86.7656H41.4688V88.6953H40.0469V91H37.9219ZM37.9219 86.7656V82.8516L35.2891 86.7656H37.9219ZM44.4062 84.8203C43.8385 84.5807 43.4245 84.2526 43.1641 83.8359C42.9089 83.4141 42.7812 82.9531 42.7812 82.4531C42.7812 81.599 43.0781 80.8932 43.6719 80.3359C44.2708 79.7786 45.1198 79.5 46.2188 79.5C47.3073 79.5 48.151 79.7786 48.75 80.3359C49.3542 80.8932 49.6562 81.599 49.6562 82.4531C49.6562 82.9844 49.5182 83.4583 49.2422 83.875C48.9661 84.2865 48.5781 84.6016 48.0781 84.8203C48.7135 85.0755 49.1953 85.4479 49.5234 85.9375C49.8568 86.4271 50.0234 86.9922 50.0234 87.6328C50.0234 88.6901 49.6849 89.5495 49.0078 90.2109C48.3359 90.8724 47.4401 91.2031 46.3203 91.2031C45.2786 91.2031 44.4115 90.9297 43.7188 90.3828C42.901 89.737 42.4922 88.8516 42.4922 87.7266C42.4922 87.1068 42.6458 86.5391 42.9531 86.0234C43.2604 85.5026 43.7448 85.1016 44.4062 84.8203ZM44.8594 82.6094C44.8594 83.0469 44.9818 83.388 45.2266 83.6328C45.4766 83.8776 45.8073 84 46.2188 84C46.6354 84 46.9688 83.8776 47.2188 83.6328C47.4688 83.3828 47.5938 83.0391 47.5938 82.6016C47.5938 82.1901 47.4688 81.862 47.2188 81.6172C46.974 81.3672 46.6484 81.2422 46.2422 81.2422C45.8203 81.2422 45.4844 81.3672 45.2344 81.6172C44.9844 81.8672 44.8594 82.1979 44.8594 82.6094ZM44.6562 87.5156C44.6562 88.1198 44.8099 88.5911 45.1172 88.9297C45.4297 89.2682 45.8177 89.4375 46.2812 89.4375C46.7344 89.4375 47.1094 89.276 47.4062 88.9531C47.7031 88.625 47.8516 88.1536 47.8516 87.5391C47.8516 87.0026 47.7005 86.5729 47.3984 86.25C47.0964 85.9219 46.7135 85.7578 46.25 85.7578C45.7135 85.7578 45.3125 85.9427 45.0469 86.3125C44.7865 86.6823 44.6562 87.0833 44.6562 87.5156ZM55.1406 79.5C56.25 79.5 57.1172 79.8958 57.7422 80.6875C58.487 81.625 58.8594 83.1797 58.8594 85.3516C58.8594 87.5182 58.4844 89.0755 57.7344 90.0234C57.1146 90.8047 56.25 91.1953 55.1406 91.1953C54.026 91.1953 53.1276 90.7682 52.4453 89.9141C51.763 89.0547 51.4219 87.526 51.4219 85.3281C51.4219 83.1719 51.7969 81.6198 52.5469 80.6719C53.1667 79.8906 54.0312 79.5 55.1406 79.5ZM55.1406 81.3203C54.875 81.3203 54.638 81.4062 54.4297 81.5781C54.2214 81.7448 54.0599 82.0469 53.9453 82.4844C53.7943 83.0521 53.7188 84.0078 53.7188 85.3516C53.7188 86.6953 53.7865 87.6198 53.9219 88.125C54.0573 88.625 54.2266 88.9583 54.4297 89.125C54.638 89.2917 54.875 89.375 55.1406 89.375C55.4062 89.375 55.6432 89.2917 55.8516 89.125C56.0599 88.9531 56.2214 88.6484 56.3359 88.2109C56.487 87.6484 56.5625 86.6953 56.5625 85.3516C56.5625 84.0078 56.4948 83.0859 56.3594 82.5859C56.224 82.0807 56.0521 81.7448 55.8438 81.5781C55.6406 81.4062 55.4062 81.3203 55.1406 81.3203ZM65.3203 82.7031H68.0391L70.1016 88.4844L72.1797 82.7031H74.8906V91H73.0234V85.5391L71 91H69.125L67.1953 85.5391V91H65.3203V82.7031ZM76.375 86.7344C76.375 86.0052 76.5547 85.2995 76.9141 84.6172C77.2734 83.9349 77.7812 83.4141 78.4375 83.0547C79.099 82.6953 79.8359 82.5156 80.6484 82.5156C81.9036 82.5156 82.9323 82.9245 83.7344 83.7422C84.5365 84.5547 84.9375 85.5833 84.9375 86.8281C84.9375 88.0833 84.5312 89.125 83.7188 89.9531C82.9115 90.776 81.8932 91.1875 80.6641 91.1875C79.9036 91.1875 79.1771 91.0156 78.4844 90.6719C77.7969 90.3281 77.2734 89.8255 76.9141 89.1641C76.5547 88.4974 76.375 87.6875 76.375 86.7344ZM78.625 86.8516C78.625 87.6745 78.8203 88.3047 79.2109 88.7422C79.6016 89.1797 80.0833 89.3984 80.6562 89.3984C81.2292 89.3984 81.7083 89.1797 82.0938 88.7422C82.4844 88.3047 82.6797 87.6693 82.6797 86.8359C82.6797 86.0234 82.4844 85.3984 82.0938 84.9609C81.7083 84.5234 81.2292 84.3047 80.6562 84.3047C80.0833 84.3047 79.6016 84.5234 79.2109 84.9609C78.8203 85.3984 78.625 86.0286 78.625 86.8516ZM93.3047 91H87.0234V93.1875H85.2422V89.2031H86.1406C86.5156 88.7865 86.8255 88.1354 87.0703 87.25C87.3151 86.3646 87.4609 84.849 87.5078 82.7031H94.2031V89.2031H95.0938V93.1875H93.3047V91ZM92.0312 89.2031L92.0391 84.5078H89.3828C89.2943 86.7995 88.9297 88.3646 88.2891 89.2031H92.0312ZM101.406 88.3594L103.594 88.7266C103.312 89.5286 102.867 90.1406 102.258 90.5625C101.654 90.9792 100.896 91.1875 99.9844 91.1875C98.5417 91.1875 97.474 90.7161 96.7812 89.7734C96.2344 89.0182 95.9609 88.0651 95.9609 86.9141C95.9609 85.5391 96.3203 84.4635 97.0391 83.6875C97.7578 82.9062 98.6667 82.5156 99.7656 82.5156C101 82.5156 101.974 82.9245 102.688 83.7422C103.401 84.5547 103.742 85.8021 103.711 87.4844H98.2109C98.2266 88.1354 98.4036 88.6432 98.7422 89.0078C99.0807 89.3672 99.5026 89.5469 100.008 89.5469C100.352 89.5469 100.641 89.4531 100.875 89.2656C101.109 89.0781 101.286 88.776 101.406 88.3594ZM101.531 86.1406C101.516 85.5052 101.352 85.0234 101.039 84.6953C100.727 84.362 100.346 84.1953 99.8984 84.1953C99.4193 84.1953 99.0234 84.3698 98.7109 84.7188C98.3984 85.0677 98.2448 85.5417 98.25 86.1406H101.531ZM106.102 82.7031H113.453V91H111.266V84.4844H108.273V88.2109C108.273 89.1589 108.164 89.8255 107.945 90.2109C107.727 90.5911 107.484 90.8411 107.219 90.9609C106.953 91.0807 106.526 91.1406 105.938 91.1406C105.589 91.1406 105.128 91.0938 104.555 91V89.3828C104.602 89.3828 104.724 89.388 104.922 89.3984C105.151 89.4141 105.328 89.4219 105.453 89.4219C105.75 89.4219 105.932 89.3255 106 89.1328C106.068 88.9349 106.102 88.3906 106.102 87.5V82.7031ZM120.266 88.3594L122.453 88.7266C122.172 89.5286 121.727 90.1406 121.117 90.5625C120.513 90.9792 119.755 91.1875 118.844 91.1875C117.401 91.1875 116.333 90.7161 115.641 89.7734C115.094 89.0182 114.82 88.0651 114.82 86.9141C114.82 85.5391 115.18 84.4635 115.898 83.6875C116.617 82.9062 117.526 82.5156 118.625 82.5156C119.859 82.5156 120.833 82.9245 121.547 83.7422C122.26 84.5547 122.602 85.8021 122.57 87.4844H117.07C117.086 88.1354 117.263 88.6432 117.602 89.0078C117.94 89.3672 118.362 89.5469 118.867 89.5469C119.211 89.5469 119.5 89.4531 119.734 89.2656C119.969 89.0781 120.146 88.776 120.266 88.3594ZM120.391 86.1406C120.375 85.5052 120.211 85.0234 119.898 84.6953C119.586 84.362 119.206 84.1953 118.758 84.1953C118.279 84.1953 117.883 84.3698 117.57 84.7188C117.258 85.0677 117.104 85.5417 117.109 86.1406H120.391ZM124.312 82.7031H126.422V87.9141L129.797 82.7031H131.953V91H129.844V85.6953L126.422 91H124.312V82.7031ZM129.57 79.3359H130.641C130.578 80.0443 130.328 80.6016 129.891 81.0078C129.458 81.4089 128.896 81.6094 128.203 81.6094C127.51 81.6094 126.945 81.4089 126.508 81.0078C126.076 80.6016 125.828 80.0443 125.766 79.3359H126.836C126.872 79.7057 127.003 79.987 127.227 80.1797C127.451 80.3672 127.776 80.4609 128.203 80.4609C128.63 80.4609 128.956 80.3672 129.18 80.1797C129.404 79.987 129.534 79.7057 129.57 79.3359ZM29.5078 100.703H37.0156V102.477H34.3594V109H32.1641V102.477H29.5078V100.703ZM43.1406 106.359L45.3281 106.727C45.0469 107.529 44.6016 108.141 43.9922 108.562C43.388 108.979 42.6302 109.188 41.7188 109.188C40.276 109.188 39.2083 108.716 38.5156 107.773C37.9688 107.018 37.6953 106.065 37.6953 104.914C37.6953 103.539 38.0547 102.464 38.7734 101.688C39.4922 100.906 40.401 100.516 41.5 100.516C42.7344 100.516 43.7083 100.924 44.4219 101.742C45.1354 102.555 45.4766 103.802 45.4453 105.484H39.9453C39.9609 106.135 40.138 106.643 40.4766 107.008C40.8151 107.367 41.237 107.547 41.7422 107.547C42.0859 107.547 42.375 107.453 42.6094 107.266C42.8438 107.078 43.0208 106.776 43.1406 106.359ZM43.2656 104.141C43.25 103.505 43.0859 103.023 42.7734 102.695C42.4609 102.362 42.0807 102.195 41.6328 102.195C41.1536 102.195 40.7578 102.37 40.4453 102.719C40.1328 103.068 39.9792 103.542 39.9844 104.141H43.2656ZM45.9688 109L48.9609 104.727L46.0938 100.703H48.7734L50.2422 102.984L51.7891 100.703H54.3672L51.5547 104.633L54.625 109H51.9297L50.2422 106.43L48.5391 109H45.9688ZM55.8438 100.703H58.0391V103.742H61.1797V100.703H63.3828V109H61.1797V105.516H58.0391V109H55.8438V100.703ZM65.5469 100.703H67.6562V105.914L71.0312 100.703H73.1875V109H71.0781V103.695L67.6562 109H65.5469V100.703ZM75.3594 100.703H77.5469V104.094C77.9115 104.052 78.1693 103.94 78.3203 103.758C78.4714 103.576 78.6536 103.177 78.8672 102.562C79.1484 101.745 79.4557 101.221 79.7891 100.992C80.1224 100.763 80.5599 100.648 81.1016 100.648C81.2682 100.648 81.5573 100.661 81.9688 100.688L81.9766 102.141C81.3984 102.141 81.0286 102.195 80.8672 102.305C80.7057 102.419 80.5312 102.76 80.3438 103.328C80.0885 104.094 79.7214 104.565 79.2422 104.742C79.9349 104.935 80.5208 105.536 81 106.547C81.026 106.599 81.0547 106.654 81.0859 106.711L82.3125 109H79.9531L78.8594 106.602C78.6354 106.117 78.4401 105.807 78.2734 105.672C78.112 105.531 77.8698 105.461 77.5469 105.461V109H75.3594V100.703ZM83.4062 100.703H85.5156V105.914L88.8906 100.703H91.0469V109H88.9375V103.695L85.5156 109H83.4062V100.703ZM97.7422 109V97.5469H101.203L103.281 105.359L105.336 97.5469H108.805V109H106.656V99.9844L104.383 109H102.156L99.8906 99.9844V109H97.7422ZM111.086 99.5781V97.5469H113.281V99.5781H111.086ZM111.086 109V100.703H113.281V109H111.086ZM120.344 106.359L122.531 106.727C122.25 107.529 121.805 108.141 121.195 108.562C120.591 108.979 119.833 109.188 118.922 109.188C117.479 109.188 116.411 108.716 115.719 107.773C115.172 107.018 114.898 106.065 114.898 104.914C114.898 103.539 115.258 102.464 115.977 101.688C116.695 100.906 117.604 100.516 118.703 100.516C119.938 100.516 120.911 100.924 121.625 101.742C122.339 102.555 122.68 103.802 122.648 105.484H117.148C117.164 106.135 117.341 106.643 117.68 107.008C118.018 107.367 118.44 107.547 118.945 107.547C119.289 107.547 119.578 107.453 119.812 107.266C120.047 107.078 120.224 106.776 120.344 106.359ZM120.469 104.141C120.453 103.505 120.289 103.023 119.977 102.695C119.664 102.362 119.284 102.195 118.836 102.195C118.357 102.195 117.961 102.37 117.648 102.719C117.336 103.068 117.182 103.542 117.188 104.141H120.469ZM124.445 109V97.5469H126.641V109H124.445ZM133.703 106.359L135.891 106.727C135.609 107.529 135.164 108.141 134.555 108.562C133.951 108.979 133.193 109.188 132.281 109.188C130.839 109.188 129.771 108.716 129.078 107.773C128.531 107.018 128.258 106.065 128.258 104.914C128.258 103.539 128.617 102.464 129.336 101.688C130.055 100.906 130.964 100.516 132.062 100.516C133.297 100.516 134.271 100.924 134.984 101.742C135.698 102.555 136.039 103.802 136.008 105.484H130.508C130.523 106.135 130.701 106.643 131.039 107.008C131.378 107.367 131.799 107.547 132.305 107.547C132.648 107.547 132.938 107.453 133.172 107.266C133.406 107.078 133.583 106.776 133.703 106.359ZM133.828 104.141C133.812 103.505 133.648 103.023 133.336 102.695C133.023 102.362 132.643 102.195 132.195 102.195C131.716 102.195 131.32 102.37 131.008 102.719C130.695 103.068 130.542 103.542 130.547 104.141H133.828Z" fill="#333333"/>
<defs>
<linearGradient id="paint0_linear_44_919" x1="-4" y1="94.9998" x2="170" y2="94.9998" gradientUnits="userSpaceOnUse">
<stop stop-color="#00FFE3"/>
<stop offset="1" stop-color="#8AA4FF" stop-opacity="0.33"/>
<stop offset="1" stop-color="#8AA4FF"/>
</linearGradient>
</defs>
</svg>