<svg width="136" height="146" viewBox="0 0 136 146" fill="none" xmlns="http://www.w3.org/2000/svg">
<circle cx="63" cy="73" r="73" fill="#F6F6F6"/>
<circle cx="62" cy="73" r="65" fill="url(#paint0_linear_45_737)"/>
<path d="M22.5566 68V65.9834H18.4551V64.3018L22.8027 57.9375H24.416V64.2949H25.6602V65.9834H24.416V68H22.5566ZM22.5566 64.2949V60.8701L20.2529 64.2949H22.5566ZM28.2305 62.5928C27.7337 62.3831 27.3714 62.096 27.1436 61.7314C26.9202 61.3623 26.8086 60.959 26.8086 60.5215C26.8086 59.7741 27.0684 59.1566 27.5879 58.6689C28.112 58.1813 28.8548 57.9375 29.8164 57.9375C30.7689 57.9375 31.5072 58.1813 32.0312 58.6689C32.5599 59.1566 32.8242 59.7741 32.8242 60.5215C32.8242 60.9863 32.7035 61.401 32.4619 61.7656C32.2204 62.1257 31.8809 62.4014 31.4434 62.5928C31.9993 62.8161 32.4209 63.1419 32.708 63.5703C32.9997 63.9987 33.1455 64.4932 33.1455 65.0537C33.1455 65.9788 32.8493 66.7308 32.2568 67.3096C31.6689 67.8883 30.8851 68.1777 29.9053 68.1777C28.9938 68.1777 28.235 67.9385 27.6289 67.46C26.9134 66.8949 26.5557 66.1201 26.5557 65.1357C26.5557 64.5934 26.6901 64.0967 26.959 63.6455C27.2279 63.1898 27.6517 62.8389 28.2305 62.5928ZM28.627 60.6582C28.627 61.041 28.734 61.3395 28.9482 61.5537C29.167 61.7679 29.4564 61.875 29.8164 61.875C30.181 61.875 30.4727 61.7679 30.6914 61.5537C30.9102 61.335 31.0195 61.0342 31.0195 60.6514C31.0195 60.2913 30.9102 60.0042 30.6914 59.79C30.4772 59.5713 30.1924 59.4619 29.8369 59.4619C29.4678 59.4619 29.1738 59.5713 28.9551 59.79C28.7363 60.0088 28.627 60.2982 28.627 60.6582ZM28.4492 64.9512C28.4492 65.4798 28.5837 65.8923 28.8525 66.1885C29.126 66.4847 29.4655 66.6328 29.8711 66.6328C30.2676 66.6328 30.5957 66.4915 30.8555 66.209C31.1152 65.9219 31.2451 65.5094 31.2451 64.9717C31.2451 64.5023 31.113 64.1263 30.8486 63.8438C30.5843 63.5566 30.2493 63.4131 29.8438 63.4131C29.3743 63.4131 29.0234 63.5749 28.791 63.8984C28.5632 64.222 28.4492 64.5729 28.4492 64.9512ZM37.623 57.9375C38.5938 57.9375 39.3525 58.2839 39.8994 58.9766C40.5511 59.7969 40.877 61.1572 40.877 63.0576C40.877 64.9535 40.5488 66.3161 39.8926 67.1455C39.3503 67.8291 38.5938 68.1709 37.623 68.1709C36.6478 68.1709 35.8617 67.7972 35.2646 67.0498C34.6676 66.2979 34.3691 64.9603 34.3691 63.0371C34.3691 61.1504 34.6973 59.7923 35.3535 58.9629C35.8958 58.2793 36.6523 57.9375 37.623 57.9375ZM37.623 59.5303C37.3906 59.5303 37.1833 59.6055 37.001 59.7559C36.8187 59.9017 36.6774 60.166 36.5771 60.5488C36.445 61.0456 36.3789 61.8818 36.3789 63.0576C36.3789 64.2334 36.4382 65.0423 36.5566 65.4844C36.6751 65.9219 36.8232 66.2135 37.001 66.3594C37.1833 66.5052 37.3906 66.5781 37.623 66.5781C37.8555 66.5781 38.0628 66.5052 38.2451 66.3594C38.4274 66.209 38.5687 65.9424 38.6689 65.5596C38.8011 65.0674 38.8672 64.2334 38.8672 63.0576C38.8672 61.8818 38.8079 61.0752 38.6895 60.6377C38.571 60.1956 38.4206 59.9017 38.2383 59.7559C38.0605 59.6055 37.8555 59.5303 37.623 59.5303ZM46.5303 60.7402H48.9092L50.7139 65.7988L52.5322 60.7402H54.9043V68H53.2705V63.2217L51.5 68H49.8594L48.1709 63.2217V68H46.5303V60.7402ZM56.2031 64.2676C56.2031 63.6296 56.3604 63.012 56.6748 62.415C56.9893 61.818 57.4336 61.3623 58.0078 61.0479C58.5866 60.7334 59.2314 60.5762 59.9424 60.5762C61.0407 60.5762 61.9408 60.9339 62.6426 61.6494C63.3444 62.3604 63.6953 63.2604 63.6953 64.3496C63.6953 65.4479 63.3398 66.3594 62.6289 67.084C61.9225 67.804 61.0316 68.1641 59.9561 68.1641C59.2907 68.1641 58.6549 68.0137 58.0488 67.7129C57.4473 67.4121 56.9893 66.9723 56.6748 66.3936C56.3604 65.8102 56.2031 65.1016 56.2031 64.2676ZM58.1719 64.3701C58.1719 65.0902 58.3428 65.6416 58.6846 66.0244C59.0264 66.4072 59.4479 66.5986 59.9492 66.5986C60.4505 66.5986 60.8698 66.4072 61.207 66.0244C61.5488 65.6416 61.7197 65.0856 61.7197 64.3564C61.7197 63.6455 61.5488 63.0986 61.207 62.7158C60.8698 62.333 60.4505 62.1416 59.9492 62.1416C59.4479 62.1416 59.0264 62.333 58.6846 62.7158C58.3428 63.0986 58.1719 63.6501 58.1719 64.3701ZM71.0166 68H65.5205V69.9141H63.9619V66.4277H64.748C65.0762 66.0632 65.3473 65.4935 65.5615 64.7188C65.7757 63.944 65.9033 62.6178 65.9443 60.7402H71.8027V66.4277H72.582V69.9141H71.0166V68ZM69.9023 66.4277L69.9092 62.3193H67.585C67.5075 64.3245 67.1885 65.694 66.6279 66.4277H69.9023ZM78.1055 65.6895L80.0195 66.0107C79.7734 66.7126 79.3838 67.248 78.8506 67.6172C78.3219 67.9818 77.6589 68.1641 76.8613 68.1641C75.599 68.1641 74.6647 67.7516 74.0586 66.9268C73.5801 66.266 73.3408 65.432 73.3408 64.4248C73.3408 63.2217 73.6553 62.2806 74.2842 61.6016C74.9131 60.918 75.7083 60.5762 76.6699 60.5762C77.75 60.5762 78.6022 60.9339 79.2266 61.6494C79.8509 62.3604 80.1494 63.4518 80.1221 64.9238H75.3096C75.3232 65.4935 75.4782 65.9378 75.7744 66.2568C76.0706 66.5713 76.4398 66.7285 76.8818 66.7285C77.1826 66.7285 77.4355 66.6465 77.6406 66.4824C77.8457 66.3184 78.0007 66.054 78.1055 65.6895ZM78.2148 63.748C78.2012 63.1921 78.0576 62.7705 77.7842 62.4834C77.5107 62.1917 77.1781 62.0459 76.7861 62.0459C76.3669 62.0459 76.0205 62.1986 75.7471 62.5039C75.4736 62.8092 75.3392 63.224 75.3438 63.748H78.2148ZM82.2139 60.7402H88.6465V68H86.7324V62.2988H84.1143V65.5596C84.1143 66.389 84.0186 66.9723 83.8271 67.3096C83.6357 67.6423 83.4238 67.861 83.1914 67.9658C82.959 68.0706 82.5853 68.123 82.0703 68.123C81.765 68.123 81.3617 68.082 80.8604 68V66.585C80.9014 66.585 81.0085 66.5895 81.1816 66.5986C81.3822 66.6123 81.5371 66.6191 81.6465 66.6191C81.9062 66.6191 82.0658 66.5348 82.125 66.3662C82.1842 66.193 82.2139 65.7168 82.2139 64.9375V60.7402ZM94.6074 65.6895L96.5215 66.0107C96.2754 66.7126 95.8857 67.248 95.3525 67.6172C94.8239 67.9818 94.1608 68.1641 93.3633 68.1641C92.1009 68.1641 91.1667 67.7516 90.5605 66.9268C90.082 66.266 89.8428 65.432 89.8428 64.4248C89.8428 63.2217 90.1572 62.2806 90.7861 61.6016C91.415 60.918 92.2103 60.5762 93.1719 60.5762C94.252 60.5762 95.1042 60.9339 95.7285 61.6494C96.3529 62.3604 96.6514 63.4518 96.624 64.9238H91.8115C91.8252 65.4935 91.9801 65.9378 92.2764 66.2568C92.5726 66.5713 92.9417 66.7285 93.3838 66.7285C93.6846 66.7285 93.9375 66.6465 94.1426 66.4824C94.3477 66.3184 94.5026 66.054 94.6074 65.6895ZM94.7168 63.748C94.7031 63.1921 94.5596 62.7705 94.2861 62.4834C94.0127 62.1917 93.68 62.0459 93.2881 62.0459C92.8688 62.0459 92.5225 62.1986 92.249 62.5039C91.9756 62.8092 91.8411 63.224 91.8457 63.748H94.7168ZM98.1484 60.7402H99.9941V65.2998L102.947 60.7402H104.834V68H102.988V63.3584L99.9941 68H98.1484V60.7402ZM102.749 57.7939H103.686C103.631 58.4137 103.412 58.9014 103.029 59.2568C102.651 59.6077 102.159 59.7832 101.553 59.7832C100.947 59.7832 100.452 59.6077 100.069 59.2568C99.6911 58.9014 99.4746 58.4137 99.4199 57.7939H100.356C100.388 58.1175 100.502 58.3636 100.698 58.5322C100.894 58.6963 101.179 58.7783 101.553 58.7783C101.926 58.7783 102.211 58.6963 102.407 58.5322C102.603 58.3636 102.717 58.1175 102.749 57.7939ZM15.1943 76.7402H21.7637V78.292H19.4395V84H17.5186V78.292H15.1943V76.7402ZM27.123 81.6895L29.0371 82.0107C28.791 82.7126 28.4014 83.248 27.8682 83.6172C27.3395 83.9818 26.6764 84.1641 25.8789 84.1641C24.6165 84.1641 23.6823 83.7516 23.0762 82.9268C22.5977 82.266 22.3584 81.432 22.3584 80.4248C22.3584 79.2217 22.6729 78.2806 23.3018 77.6016C23.9307 76.918 24.7259 76.5762 25.6875 76.5762C26.7676 76.5762 27.6198 76.9339 28.2441 77.6494C28.8685 78.3604 29.167 79.4518 29.1396 80.9238H24.3271C24.3408 81.4935 24.4958 81.9378 24.792 82.2568C25.0882 82.5713 25.4574 82.7285 25.8994 82.7285C26.2002 82.7285 26.4531 82.6465 26.6582 82.4824C26.8633 82.3184 27.0182 82.054 27.123 81.6895ZM27.2324 79.748C27.2188 79.1921 27.0752 78.7705 26.8018 78.4834C26.5283 78.1917 26.1956 78.0459 25.8037 78.0459C25.3844 78.0459 25.0381 78.1986 24.7646 78.5039C24.4912 78.8092 24.3568 79.224 24.3613 79.748H27.2324ZM29.5977 84L32.2158 80.2607L29.707 76.7402H32.0518L33.3369 78.7363L34.6904 76.7402H36.9463L34.4854 80.1787L37.1719 84H34.8135L33.3369 81.751L31.8467 84H29.5977ZM38.2383 76.7402H40.1592V79.3994H42.9072V76.7402H44.835V84H42.9072V80.9512H40.1592V84H38.2383V76.7402ZM46.7285 76.7402H48.5742V81.2998L51.5273 76.7402H53.4141V84H51.5684V79.3584L48.5742 84H46.7285V76.7402ZM55.3145 76.7402H57.2285V79.707C57.5475 79.6706 57.7731 79.5726 57.9053 79.4131C58.0374 79.2536 58.1969 78.9049 58.3838 78.3672C58.6299 77.6517 58.8988 77.1937 59.1904 76.9932C59.4821 76.7926 59.8649 76.6924 60.3389 76.6924C60.4847 76.6924 60.7376 76.7038 61.0977 76.7266L61.1045 77.998C60.5986 77.998 60.2751 78.0459 60.1338 78.1416C59.9925 78.2419 59.8398 78.5404 59.6758 79.0371C59.4525 79.707 59.1312 80.1195 58.7119 80.2744C59.318 80.443 59.8307 80.9694 60.25 81.8535C60.2728 81.8991 60.2979 81.9469 60.3252 81.9971L61.3984 84H59.334L58.377 81.9014C58.181 81.4775 58.0101 81.2064 57.8643 81.0879C57.723 80.9648 57.5111 80.9033 57.2285 80.9033V84H55.3145V76.7402ZM62.3555 76.7402H64.2012V81.2998L67.1543 76.7402H69.041V84H67.1953V79.3584L64.2012 84H62.3555V76.7402ZM74.8994 84V73.9785H77.9277L79.7461 80.8145L81.5439 73.9785H84.5791V84H82.6992V76.1113L80.71 84H78.7617L76.7793 76.1113V84H74.8994ZM86.5752 75.7559V73.9785H88.4961V75.7559H86.5752ZM86.5752 84V76.7402H88.4961V84H86.5752ZM94.6758 81.6895L96.5898 82.0107C96.3438 82.7126 95.9541 83.248 95.4209 83.6172C94.8923 83.9818 94.2292 84.1641 93.4316 84.1641C92.1693 84.1641 91.235 83.7516 90.6289 82.9268C90.1504 82.266 89.9111 81.432 89.9111 80.4248C89.9111 79.2217 90.2256 78.2806 90.8545 77.6016C91.4834 76.918 92.2786 76.5762 93.2402 76.5762C94.3203 76.5762 95.1725 76.9339 95.7969 77.6494C96.4212 78.3604 96.7197 79.4518 96.6924 80.9238H91.8799C91.8936 81.4935 92.0485 81.9378 92.3447 82.2568C92.641 82.5713 93.0101 82.7285 93.4521 82.7285C93.7529 82.7285 94.0059 82.6465 94.2109 82.4824C94.416 82.3184 94.571 82.054 94.6758 81.6895ZM94.7852 79.748C94.7715 79.1921 94.6279 78.7705 94.3545 78.4834C94.0811 78.1917 93.7484 78.0459 93.3564 78.0459C92.9372 78.0459 92.5908 78.1986 92.3174 78.5039C92.0439 78.8092 91.9095 79.224 91.9141 79.748H94.7852ZM98.2646 84V73.9785H100.186V84H98.2646ZM106.365 81.6895L108.279 82.0107C108.033 82.7126 107.644 83.248 107.11 83.6172C106.582 83.9818 105.919 84.1641 105.121 84.1641C103.859 84.1641 102.924 83.7516 102.318 82.9268C101.84 82.266 101.601 81.432 101.601 80.4248C101.601 79.2217 101.915 78.2806 102.544 77.6016C103.173 76.918 103.968 76.5762 104.93 76.5762C106.01 76.5762 106.862 76.9339 107.486 77.6494C108.111 78.3604 108.409 79.4518 108.382 80.9238H103.569C103.583 81.4935 103.738 81.9378 104.034 82.2568C104.33 82.5713 104.7 82.7285 105.142 82.7285C105.442 82.7285 105.695 82.6465 105.9 82.4824C106.105 82.3184 106.26 82.054 106.365 81.6895ZM106.475 79.748C106.461 79.1921 106.317 78.7705 106.044 78.4834C105.771 78.1917 105.438 78.0459 105.046 78.0459C104.627 78.0459 104.28 78.1986 104.007 78.5039C103.733 78.8092 103.599 79.224 103.604 79.748H106.475Z" fill="#333333"/>
<defs>
<linearGradient id="paint0_linear_45_737" x1="-3" y1="72.9999" x2="127" y2="72.9999" gradientUnits="userSpaceOnUse">
<stop stop-color="#00FFE3"/>
<stop offset="1" stop-color="#8AA4FF" stop-opacity="0.33"/>
<stop offset="1" stop-color="#8AA4FF"/>
</linearGradient>
</defs>
</svg>
