<svg width="110" height="22" viewBox="0 0 110 22" fill="none" xmlns="http://www.w3.org/2000/svg">
<g id="logo" clip-path="url(#clip0_45_681)">
<path id="Vector" d="M99.2865 0H101.106C102.022 0 103.861 0.134802 103.861 1.38848C103.861 2.6489 102.229 2.95895 101.473 3.08027C102.537 3.12745 104.148 3.22856 104.148 4.63052C104.148 6.03248 102.517 6.38297 101.286 6.39645H99.2798C99.7078 6.2886 99.7479 5.58762 99.7479 5.04841C99.7479 4.37439 99.7479 3.63971 99.7479 2.93198C99.795 2.05469 99.7411 1.17486 99.5874 0.310048C99.5603 0.24078 99.5196 0.177676 99.468 0.124435C99.4163 0.0711936 99.3546 0.0288875 99.2865 0ZM102.838 1.44914C102.838 0.208947 101.534 0.101104 100.698 0.101104C100.698 0.404413 100.698 1.60417 100.698 2.86458V3.08027C101.607 3.03309 102.838 2.81066 102.838 1.44914ZM101.132 3.14767C100.978 3.14767 100.825 3.14767 100.678 3.14767C100.678 4.40135 100.678 5.6011 100.744 5.84375C100.811 6.0864 100.865 6.26164 101.059 6.30208C102.135 6.30208 103.065 5.91789 103.065 4.6777C103.065 3.4375 102.129 3.14767 101.132 3.14767Z" fill="#333333"/>
<path id="Vector_2" d="M104.67 0H110.02V0.99081H109.96C109.86 0.107844 108.502 0.0943623 107.827 0.0943623V4.35417C107.827 4.50919 107.827 4.86642 107.827 5.21691C107.829 5.50838 107.879 5.79747 107.974 6.07292C108.019 6.15555 108.082 6.22689 108.159 6.2817C108.235 6.33652 108.323 6.37342 108.415 6.38971H106.302C106.378 6.37407 106.45 6.34436 106.516 6.30208C106.599 6.24218 106.668 6.16378 106.716 6.07292C106.869 5.55761 106.926 5.01831 106.884 4.48223V0.0943623C106.135 0.0943623 104.971 0.094363 104.73 0.963848H104.677L104.67 0Z" fill="#333333"/>
<path id="Vector_3" d="M3.8187 15.2126C5.55751 10.1777 7.32308 5.16969 9.09533 0.134766H12.2319L17.8161 15.2126C18.5317 16.7157 19.6486 20.4362 20.8591 21.4675C21.1559 21.7066 21.504 21.8727 21.8756 21.9528L14.4255 22.0202C17.7693 21.9258 15.4219 18.0165 14.7398 15.954L14.6729 15.7046L14.0576 14.0465C12.8137 15.0778 11.2622 15.1721 9.65041 15.1721H8.567C6.89506 15.1721 5.22313 15.2935 4.00596 16.5202L3.14993 19.2567C2.65503 20.7598 3.14993 21.6967 3.8187 21.9528H0C2.0197 21.2788 3.07636 17.2346 3.8187 15.2126ZM8.78769 14.7138H9.06189C10.8007 14.7138 12.5395 14.7138 13.9038 13.5275L9.31603 1.09861L4.21996 15.7383C5.49732 14.7745 7.16257 14.7408 8.78769 14.7408V14.7138Z" fill="#333333"/>
<path id="Vector_4" d="M38.7085 18.6839C38.2738 20.032 37.3108 20.7801 35.9131 21.2452C34.4962 21.5523 33.0484 21.6903 31.5995 21.6564C31.0109 21.6564 30.3288 21.6564 29.5931 21.6564C28.6301 21.5957 28.3492 20.9082 28.1954 20.1263C28.0651 19.36 27.9914 18.585 27.9747 17.8077V7.07731C27.9747 5.85733 27.9747 2.13674 27.5066 1.19311C27.4037 0.945369 27.2469 0.724077 27.0478 0.545583C26.8487 0.367089 26.6124 0.235956 26.3563 0.161865H23.1528C23.409 0.235956 23.6453 0.367089 23.8444 0.545583C24.0435 0.724077 24.2003 0.945369 24.3031 1.19311C24.7713 2.13674 24.7713 5.85733 24.7713 7.07731V17.9088C24.6776 19.0344 24.6175 20.2881 24.3031 20.8206C24.18 21.0932 23.9997 21.3356 23.7745 21.5311C23.5493 21.7266 23.2848 21.8706 22.999 21.9529H38.956V18.7041L38.7085 18.6839Z" fill="#333333"/>
<path id="Vector_5" d="M40.9087 21.9527C41.291 21.875 41.6449 21.6932 41.9319 21.427C42.6007 20.8608 42.6475 16.264 42.6475 15.0103V6.07283C42.6475 4.85285 42.6475 1.26033 41.9319 0.680669C41.6487 0.407813 41.2934 0.222953 40.9087 0.148193H48.205C52.5186 0.148193 58.0761 2.12307 58.0761 7.25236C58.0761 13.1298 52.2979 15.3406 46.9343 15.3406C46.5598 15.3406 46.1251 15.3406 45.6904 15.2732V15.9472C45.6904 17.1335 45.6904 20.7597 46.3592 21.3394C46.6589 21.606 47.0236 21.7874 47.4159 21.8651L40.9087 21.9527ZM45.6904 14.889C46.152 14.9703 46.6196 15.0109 47.0882 15.0103C50.9069 15.0103 54.8125 12.7254 54.8125 7.81853C54.8125 1.84672 51.0005 0.532384 45.7239 0.532384L45.6904 14.889Z" fill="#333333"/>
<path id="Vector_6" d="M85.2619 15.2126C87.0007 10.1777 88.7729 5.16969 90.5385 0.134766H93.6751L99.2593 15.2126C99.9749 16.7157 101.092 20.4362 102.302 21.4675C102.605 21.6907 102.956 21.8406 103.325 21.9056L95.882 21.973C99.2259 21.8786 96.8718 17.9693 96.1896 15.9068L96.1295 15.6574L95.5075 13.9993C94.2636 15.0306 92.712 15.125 91.1003 15.125H90.0102C88.3382 15.125 86.6663 15.2463 85.4491 16.473L84.5797 19.2837C84.0848 20.7867 84.5797 21.7236 85.2485 21.9797H81.4565C83.4629 21.2788 84.5195 17.2346 85.2619 15.2126ZM90.2309 14.7138H90.5118C92.2506 14.7138 93.9827 14.7138 95.3537 13.5275L90.7592 1.09861L85.6698 15.7383C86.9405 14.7745 88.5857 14.7408 90.2309 14.7408V14.7138Z" fill="#333333"/>
<path id="Vector_7" d="M79.4903 17.9088C79.4301 16.7225 79.4301 15.5362 79.4301 14.97V7.07726C79.4301 5.85729 79.4301 2.1367 78.9687 1.19307C78.8658 0.945325 78.7091 0.724033 78.51 0.545539C78.3109 0.367046 78.0745 0.235912 77.8184 0.161821H74.9025C75.0296 0.222483 75.2169 0.256186 75.2436 0.289887C75.5091 0.460163 75.7149 0.710032 75.8321 1.00435C76.3605 2.0693 76.3605 5.79663 76.3605 7.07052V10.4945C73.1972 13.1502 67.546 10.899 64.162 13.1906V7.05704C64.162 5.83707 64.162 2.11648 63.7006 1.17285C63.5977 0.925105 63.441 0.703813 63.2419 0.525319C63.0428 0.346826 62.8064 0.215692 62.5503 0.141602H59.4873C61.5939 0.76844 61.099 4.23964 61.099 6.05276V14.97C61.099 15.5632 61.099 16.7562 61.099 17.9088C61.0389 18.8793 60.9787 21.198 59.9822 21.7574C59.922 21.8248 59.7013 21.8518 59.5475 21.9124H65.8808C63.7407 21.4743 64.2022 17.6324 64.2022 15.9743V13.6557C67.546 11.1888 73.1771 13.5007 76.4006 11.0001V14.97C76.4006 15.5632 76.4006 16.7562 76.4006 17.9088C76.41 18.9697 76.252 20.0253 75.9325 21.0362C75.8313 21.2517 75.6841 21.442 75.5014 21.5935C75.3187 21.745 75.1051 21.8539 74.8758 21.9124H81.0218C80.868 21.8518 80.654 21.7911 80.5871 21.7574C79.6174 21.1238 79.5238 18.8996 79.4903 17.9088Z" fill="#333333"/>
</g>
<defs>
<clipPath id="clip0_45_681">
<rect width="110" height="22" fill="white"/>
</clipPath>
</defs>
</svg>
